<svg width="280" height="280" viewBox="0 0 280 280" fill="none" xmlns="http://www.w3.org/2000/svg">
<g clip-path="url(#clip0)">
<rect x="1.5" y="1.5" width="277" height="277" rx="138.5" fill="white"/>
<rect width="280" height="280" fill="#E5ECF9"/>
<circle cx="140" cy="140" r="130" stroke="white" stroke-width="20"/>
<path d="M160.48 187.324C154.505 187.142 136.776 181.485 133.251 178.874L160.48 187.324Z" fill="#F1CF73"/>
<path d="M162.939 215.208C173.963 230.649 209.609 235.233 215.69 237.44C225.666 241.22 227.362 251.44 227.51 257.007C227.936 272.868 229.797 300.078 224.231 314.456" fill="#F1CF73"/>
<path d="M162.939 215.208C156.25 203.152 160.48 187.324 160.48 187.324C160.48 187.324 173.438 187.941 178.635 185.281C188.627 180.974 200.495 165.22 200.372 142.664C200.089 122.351 195.819 102.293 187.807 83.6412C180.578 64.8565 135.718 47.2989 101.924 80.1083C101.924 80.1083 83.7034 96.8424 94.2851 124.653" fill="#F1CF73"/>
<path d="M41.7777 314.456C36.9664 298.966 38.8598 258.234 39.5565 252.486C40.2532 246.738 42.9416 235.076 57.1789 231.527C63.4738 229.938 102.891 223.534 110.891 212.425" fill="#F1CF73"/>
<path d="M112.825 170.425C112.825 170.425 99.5882 162.873 94.3096 147.127C89.0311 131.381 94.2851 124.653 94.2851 124.653C98.5226 118.304 115.383 116.747 115.383 135.902" fill="#F1CF73"/>
<path d="M112.825 170.425C113.834 190.437 114.088 199.619 110.891 212.425L112.825 170.425Z" fill="#F1CF73"/>
<path d="M162.939 215.208C173.963 230.649 209.609 235.233 215.69 237.44C225.666 241.22 227.362 251.44 227.51 257.007C227.936 272.868 229.797 300.078 224.231 314.456H41.7777C36.9664 298.966 38.8598 258.234 39.5565 252.486C40.2532 246.738 42.9416 235.076 57.1789 231.527C63.4738 229.938 102.891 223.534 110.891 212.425C114.088 199.619 113.834 190.437 112.825 170.425C112.825 170.425 99.5882 162.873 94.3096 147.127C89.0311 131.381 94.2851 124.653 94.2851 124.653C83.7034 96.8424 101.924 80.1083 101.924 80.1083C135.718 47.2989 180.578 64.8565 187.807 83.6412C195.819 102.293 200.089 122.351 200.372 142.664C200.495 165.22 188.627 180.974 178.635 185.281C173.438 187.941 160.48 187.324 160.48 187.324C160.48 187.324 156.25 203.152 162.939 215.208Z" fill="#F1CF73"/>
<path opacity="0.4" d="M160.291 186.689C159.498 192.294 158.268 200.529 160.291 207.118C152.792 205.331 131.62 190.626 131.62 178.685C140.883 182.32 150.489 185.002 160.291 186.689Z" fill="#050504"/>
<path d="M103.946 129.294C100.749 130.167 98.5689 135.018 101.11 140.247" stroke="#050504" stroke-width="3" stroke-linecap="round"/>
<path d="M38.8436 245.486C38.1436 251.234 36.2413 291.966 41.0754 307.456H224.393C229.984 293.077 228.115 265.868 227.687 250.007C227.539 244.44 225.834 234.22 215.812 230.44C210.216 228.419 181.588 224.823 166.765 212.882L136.706 215.353L106.647 209.588C93.3258 217.868 62.0023 223.157 56.5495 224.527C42.2448 228.076 39.5436 239.737 38.8436 245.486Z" fill="#FAE5E3" stroke="#050504" stroke-width="3" stroke-linecap="round" stroke-linejoin="round"/>
<path d="M128.973 226.495L106.004 212.009C108.605 206.638 110.39 200.909 111.3 195.012L138.896 210.766L161.197 197.425C162.441 203.749 164.31 209.069 166.904 213.228L147.799 224.445L138.896 210.766L128.973 226.495Z" fill="white" stroke="#050504" stroke-width="3" stroke-linecap="round" stroke-linejoin="round"/>
<path d="M138.897 210.766L147.799 224.445C153.745 248.928 161.799 281.457 163.52 309.268L148.697 323.457L134.565 311.236C133.947 285.402 133.972 252.642 128.973 226.52L138.897 210.766Z" fill="#EB8682" stroke="#050504" stroke-width="3" stroke-linecap="round" stroke-linejoin="round"/>
<path opacity="0.2" d="M138.897 210.749L146.729 222.773L130.225 230.226L128.973 226.495L138.897 210.749Z" fill="#050504"/>
<path d="M101.128 119.82C108.983 118.894 114.253 122.074 116.368 127.065C118.322 131.718 117.609 140.259 125.237 135.541C132.16 131.267 126.583 117.485 123.786 110.691C139.902 107.568 141.264 97.3121 141.264 97.3121C148.624 99.7754 163.395 95.2754 164.181 90.9928C171.854 93.8511 182.643 93.8654 190.325 91.0331C192.952 94.7763 191.882 97.3121 194.054 101.246C207.689 97.2214 215.398 72.349 193.673 61.6828C196.161 50.0586 178.432 41.6786 170.261 50.2518C168.534 36.913 145.941 36.7278 142.82 46.6535C135.711 39.2958 112.826 41.5659 111.359 54.5988C101.225 49.8735 87.2092 63.0433 89.6817 74.6352C77.9434 76.4304 76.3383 81.4858 79.2648 92.1037C68.5641 102.11 70.2584 113.758 80.0754 120.931C75.7303 129.295 86.6819 140.989 93.1915 144.314C89.1382 127.811 93.7755 121.333 101.128 119.82Z" fill="#050504"/>
<path d="M173.795 131.212C173.463 130.453 172.578 130.108 171.819 130.44C171.06 130.773 170.715 131.657 171.047 132.416L173.795 131.212ZM173.809 152.326C173.053 152.664 172.714 153.551 173.052 154.308C173.39 155.064 174.277 155.403 175.033 155.065L173.809 152.326ZM135.07 113.018C134.537 113.652 134.618 114.598 135.251 115.132C135.885 115.666 136.831 115.585 137.365 114.951L135.07 113.018ZM154.16 106.243L154.413 104.765L154.402 104.763L154.16 106.243ZM156.334 108.374C157.111 108.663 157.974 108.267 158.263 107.49C158.551 106.714 158.155 105.85 157.379 105.562L156.334 108.374ZM175.064 107.731C174.453 108.291 174.411 109.239 174.971 109.85C175.53 110.462 176.479 110.503 177.09 109.944L175.064 107.731ZM192.667 104.942L193.298 103.581L193.296 103.581L192.667 104.942ZM193.919 107.433C194.581 107.932 195.521 107.8 196.02 107.139C196.519 106.477 196.387 105.537 195.726 105.038L193.919 107.433ZM172.421 131.814C171.047 132.416 171.047 132.416 171.047 132.416C171.047 132.416 171.047 132.416 171.047 132.417C171.048 132.417 171.048 132.418 171.048 132.419C171.049 132.421 171.05 132.423 171.052 132.427C171.055 132.435 171.06 132.446 171.067 132.461C171.08 132.491 171.099 132.535 171.125 132.594C171.176 132.71 171.251 132.882 171.346 133.101C171.536 133.54 171.809 134.169 172.135 134.929C172.789 136.45 173.661 138.497 174.531 140.599C175.403 142.704 176.269 144.852 176.915 146.583C177.239 147.45 177.501 148.196 177.68 148.771C177.77 149.059 177.834 149.287 177.874 149.458C177.921 149.656 177.913 149.686 177.913 149.619H180.913C180.913 149.321 180.85 149.01 180.795 148.772C180.732 148.506 180.646 148.202 180.544 147.878C180.341 147.226 180.057 146.422 179.726 145.534C179.061 143.753 178.179 141.566 177.303 139.451C176.425 137.332 175.549 135.273 174.892 133.744C174.563 132.98 174.289 132.347 174.097 131.906C174.001 131.685 173.926 131.512 173.874 131.394C173.849 131.335 173.829 131.29 173.816 131.259C173.809 131.244 173.804 131.232 173.8 131.224C173.799 131.22 173.797 131.217 173.796 131.215C173.796 131.214 173.796 131.214 173.795 131.213C173.795 131.213 173.795 131.213 173.795 131.212C173.795 131.212 173.795 131.212 172.421 131.814ZM177.913 149.619C177.913 149.447 177.986 149.559 177.571 149.974C177.217 150.329 176.699 150.712 176.116 151.081C175.544 151.442 174.963 151.756 174.521 151.981C174.301 152.093 174.119 152.181 173.994 152.24C173.931 152.27 173.883 152.292 173.851 152.307C173.835 152.314 173.824 152.319 173.816 152.323C173.813 152.324 173.81 152.325 173.809 152.326C173.808 152.326 173.808 152.326 173.808 152.326C173.808 152.326 173.808 152.326 173.808 152.326C173.808 152.326 173.808 152.326 173.808 152.326C173.809 152.326 173.809 152.326 174.421 153.695C175.033 155.065 175.034 155.065 175.034 155.064C175.034 155.064 175.034 155.064 175.034 155.064C175.035 155.064 175.035 155.064 175.036 155.064C175.037 155.063 175.039 155.062 175.04 155.062C175.044 155.06 175.049 155.058 175.054 155.055C175.066 155.05 175.083 155.042 175.103 155.033C175.145 155.014 175.204 154.986 175.278 154.951C175.425 154.882 175.633 154.781 175.881 154.655C176.375 154.404 177.042 154.044 177.718 153.617C178.383 153.197 179.113 152.676 179.694 152.094C180.215 151.572 180.913 150.713 180.913 149.619H177.913ZM137.365 114.951C141.817 109.666 148.186 106.785 153.917 107.724L154.402 104.763C147.363 103.61 140.011 107.153 135.07 113.018L137.365 114.951ZM153.907 107.722C154.734 107.864 155.547 108.082 156.334 108.374L157.379 105.562C156.417 105.205 155.424 104.938 154.413 104.765L153.907 107.722ZM177.09 109.944C181.791 105.64 187.541 104.226 192.038 106.304L193.296 103.581C187.35 100.833 180.33 102.91 175.064 107.731L177.09 109.944ZM192.036 106.303C192.701 106.612 193.333 106.99 193.919 107.433L195.726 105.038C194.97 104.468 194.156 103.979 193.298 103.581L192.036 106.303Z" fill="#050504"/>
<path d="M158.348 163.151C160.792 168.867 169.248 170.24 173.102 169.592" stroke="#050504" stroke-width="3" stroke-miterlimit="10" stroke-linecap="round"/>
<path d="M153.823 135.257C156.376 135.257 158.446 132.417 158.446 128.915C158.446 125.413 156.376 122.574 153.823 122.574C151.27 122.574 149.2 125.413 149.2 128.915C149.2 132.417 151.27 135.257 153.823 135.257Z" fill="#050504"/>
<path d="M156.864 126.626C155.626 121.915 149.438 121.182 144.962 125.102" stroke="#050504" stroke-width="3" stroke-linecap="round"/>
<path d="M189.986 132.967C192.539 132.967 194.609 130.128 194.609 126.626C194.609 123.124 192.539 120.285 189.986 120.285C187.433 120.285 185.363 123.124 185.363 126.626C185.363 130.128 187.433 132.967 189.986 132.967Z" fill="#050504"/>
<path d="M193.027 124.336C191.789 119.626 185.601 118.893 181.125 122.813" stroke="#050504" stroke-width="3" stroke-linecap="round"/>
<path d="M165.009 127.754C165.009 128.583 165.681 129.254 166.509 129.254C167.338 129.254 168.009 128.583 168.009 127.754H165.009ZM177.749 126.395C177.749 127.224 178.421 127.895 179.249 127.895C180.078 127.895 180.749 127.224 180.749 126.395H177.749ZM141.033 128.518C141.823 128.766 142.665 128.327 142.913 127.536C143.161 126.746 142.722 125.904 141.932 125.656L141.033 128.518ZM97.1433 120.639L97.7851 121.995C97.8012 121.987 97.8173 121.979 97.8331 121.971L97.1433 120.639ZM89.0806 133.819C89.2327 134.633 90.0161 135.17 90.8305 135.018C91.6448 134.866 92.1817 134.082 92.0296 133.268L89.0806 133.819ZM165.009 127.087C165.009 134.419 159.889 139.991 154 139.991V142.991C161.929 142.991 168.009 135.665 168.009 127.087H165.009ZM154 139.991C148.111 139.991 142.99 134.419 142.99 127.087H139.99C139.99 135.665 146.071 142.991 154 142.991V139.991ZM142.99 127.087C142.99 119.755 148.111 114.183 154 114.183V111.183C146.071 111.183 139.99 118.509 139.99 127.087H142.99ZM154 114.183C159.889 114.183 165.009 119.755 165.009 127.087H168.009C168.009 118.509 161.929 111.183 154 111.183V114.183ZM202.653 124.303C202.653 131.635 197.532 137.207 191.643 137.207V140.207C199.572 140.207 205.653 132.881 205.653 124.303H202.653ZM191.643 137.207C185.755 137.207 180.634 131.635 180.634 124.303H177.634C177.634 132.881 183.715 140.207 191.643 140.207V137.207ZM180.634 124.303C180.634 116.972 185.755 111.4 191.643 111.4V108.4C183.715 108.4 177.634 115.726 177.634 124.303H180.634ZM191.643 111.4C197.532 111.4 202.653 116.972 202.653 124.303H205.653C205.653 115.726 199.572 108.4 191.643 108.4V111.4ZM168.009 127.754C168.009 126.963 168.413 126.295 169.302 125.732C170.224 125.149 171.55 124.776 172.97 124.69C174.391 124.604 175.727 124.817 176.643 125.229C177.571 125.648 177.749 126.088 177.749 126.395H180.749C180.749 124.409 179.335 123.152 177.875 122.494C176.402 121.831 174.553 121.589 172.789 121.695C171.023 121.802 169.165 122.269 167.698 123.197C166.198 124.147 165.009 125.663 165.009 127.754H168.009ZM141.482 127.087C141.932 125.656 141.931 125.656 141.931 125.656C141.931 125.656 141.93 125.655 141.929 125.655C141.928 125.655 141.926 125.654 141.924 125.654C141.919 125.652 141.913 125.65 141.904 125.647C141.886 125.642 141.86 125.634 141.825 125.623C141.757 125.601 141.655 125.57 141.523 125.53C141.259 125.448 140.871 125.33 140.375 125.182C139.384 124.885 137.959 124.467 136.222 123.981C132.75 123.008 128.022 121.758 123.005 120.653C117.996 119.55 112.661 118.583 107.988 118.189C105.652 117.991 103.447 117.934 101.512 118.084C99.5995 118.233 97.8345 118.592 96.4535 119.307L97.8331 121.971C98.6984 121.523 100.004 121.211 101.744 121.075C103.463 120.942 105.494 120.989 107.736 121.178C112.218 121.556 117.407 122.492 122.359 123.583C127.304 124.672 131.975 125.906 135.413 126.87C137.131 127.351 138.539 127.764 139.516 128.056C140.004 128.202 140.385 128.318 140.643 128.397C140.772 128.437 140.87 128.467 140.936 128.488C140.968 128.498 140.993 128.506 141.009 128.511C141.017 128.513 141.024 128.515 141.027 128.516C141.029 128.517 141.031 128.518 141.032 128.518C141.032 128.518 141.032 128.518 141.033 128.518C141.033 128.518 141.033 128.518 141.482 127.087ZM96.5016 119.283C93.833 120.546 91.6577 122.657 90.3152 125.287L92.9871 126.651C94.0283 124.612 95.7154 122.974 97.7851 121.995L96.5016 119.283ZM90.3152 125.287C88.9727 127.916 88.5386 130.917 89.0806 133.819L92.0296 133.268C91.6092 131.017 91.9459 128.69 92.9871 126.651L90.3152 125.287Z" fill="#050504"/>
</g>
<rect x="1.5" y="1.5" width="277" height="277" rx="138.5" stroke="#050504" stroke-width="3"/>
<defs>
<clipPath id="clip0">
</clipPath>
</defs>
</svg>
